<svg width="24" height="24" viewBox="0 0 24 24" fill="none" xmlns="http://www.w3.org/2000/svg">
<path fill-rule="evenodd" clip-rule="evenodd" d="M7.74515 13.2196H9.18191C9.39126 13.2196 9.56109 13.0482 9.56109 12.8373C9.56109 12.6267 9.39126 12.4554 9.18191 12.4554H8.12421V9.94296C8.12421 9.73233 7.95426 9.56104 7.74515 9.56104C7.53615 9.56104 7.36597 9.73233 7.36597 9.94296V12.8374C7.36597 13.0482 7.53615 13.2196 7.74515 13.2196ZM10.1708 13.2196C10.3725 13.2196 10.5366 13.0482 10.5366 12.8374V9.94296C10.5366 9.73233 10.3725 9.56104 10.1708 9.56104C9.9691 9.56104 9.80493 9.73233 9.80493 9.94296V12.8374C9.80493 13.0482 9.9691 13.2196 10.1708 13.2196ZM14.1951 12.8374C14.1951 13.0024 14.0907 13.148 13.9347 13.1997C13.8955 13.2129 13.8547 13.2196 13.8138 13.2196C13.6949 13.2196 13.5813 13.1625 13.5094 13.0667L12.0302 11.0469V12.8374C12.0302 13.0482 11.8595 13.2196 11.6493 13.2196C11.4393 13.2196 11.2683 13.0482 11.2683 12.8374V9.94307C11.2683 9.77847 11.373 9.63289 11.5287 9.58076C11.5679 9.56749 11.6088 9.56104 11.6497 9.56104C11.7685 9.56104 11.8824 9.61798 11.9539 9.71378L13.4335 11.7337V9.94307C13.4335 9.73244 13.6046 9.56115 13.8144 9.56115C14.0245 9.56115 14.1951 9.73244 14.1951 9.94307V12.8374ZM16.878 11.3904C16.878 11.1797 16.7081 11.0083 16.4987 11.0083V11.0082H15.4415V10.3249H16.4987C16.7081 10.3249 16.878 10.1536 16.878 9.94296C16.878 9.73233 16.7081 9.56104 16.4987 9.56104H15.062C14.8529 9.56104 14.6829 9.73233 14.6829 9.94296V11.3904V11.3912V12.8374C14.6829 13.0482 14.8533 13.2196 15.062 13.2196H16.4987C16.7077 13.2196 16.878 13.0482 16.878 12.8374C16.878 12.6268 16.7077 12.4555 16.4987 12.4555H15.4415V11.7722H16.4987C16.7081 11.7722 16.878 11.6009 16.878 11.3904ZM19.317 11.3348C19.317 8.07035 16.0345 5.41455 11.9999 5.41455C7.96552 5.41455 4.68286 8.07035 4.68286 11.3348C4.68286 14.2612 7.28594 16.7124 10.8024 17.1759C11.0404 17.2271 11.3647 17.3328 11.4469 17.5358C11.5207 17.72 11.4953 18.0088 11.4705 18.1952C11.4705 18.1952 11.385 18.71 11.3661 18.8199C11.3343 19.0042 11.219 19.541 11.9999 19.2131C12.7809 18.8851 16.2136 16.7391 17.7486 14.9772H17.7483C18.8089 13.8181 19.317 12.6414 19.317 11.3348V11.3348Z" fill="white"/>
</svg>
